<mxfile host="65bd71144e">
    <diagram id="pfsOcaOXfOez0LOktlwF" name="Page-1">
        <mxGraphModel dx="721" dy="586" grid="1" gridSize="10" guides="1" tooltips="1" connect="1" arrows="1" fold="1" page="1" pageScale="1" pageWidth="1600" pageHeight="900" math="0" shadow="0">
            <root>
                <mxCell id="0"/>
                <mxCell id="1" parent="0"/>
                <mxCell id="32" value="" style="rounded=0;whiteSpace=wrap;html=1;" parent="1" vertex="1">
                    <mxGeometry x="60" y="200" width="1200" height="500" as="geometry"/>
                </mxCell>
                <mxCell id="3" value="Computer" style="shape=umlActor;verticalLabelPosition=bottom;verticalAlign=top;html=1;outlineConnect=0;" parent="1" vertex="1">
                    <mxGeometry x="90" y="420" width="30" height="60" as="geometry"/>
                </mxCell>
                <mxCell id="7" value=":Game" style="whiteSpace=wrap;html=1;" parent="1" vertex="1">
                    <mxGeometry x="270" y="420" width="120" height="60" as="geometry"/>
                </mxCell>
                <mxCell id="8" value="" style="endArrow=none;html=1;entryX=0;entryY=0.5;entryDx=0;entryDy=0;" parent="1" source="3" target="7" edge="1">
                    <mxGeometry width="50" height="50" relative="1" as="geometry">
                        <mxPoint x="270" y="470" as="sourcePoint"/>
                        <mxPoint x="320" y="420" as="targetPoint"/>
                    </mxGeometry>
                </mxCell>
                <mxCell id="9" value="1:tick_speed()" style="text;html=1;align=center;verticalAlign=middle;resizable=0;points=[];autosize=1;strokeColor=none;fillColor=none;" parent="1" vertex="1">
                    <mxGeometry x="145" y="420" width="100" height="30" as="geometry"/>
                </mxCell>
                <mxCell id="10" value="" style="endArrow=none;html=1;exitX=0.5;exitY=1;exitDx=0;exitDy=0;entryX=1;entryY=0.75;entryDx=0;entryDy=0;" parent="1" source="7" target="7" edge="1">
                    <mxGeometry width="50" height="50" relative="1" as="geometry">
                        <mxPoint x="410" y="570" as="sourcePoint"/>
                        <mxPoint x="460" y="520" as="targetPoint"/>
                        <Array as="points">
                            <mxPoint x="330" y="540"/>
                            <mxPoint x="420" y="540"/>
                            <mxPoint x="420" y="465"/>
                        </Array>
                    </mxGeometry>
                </mxCell>
                <mxCell id="11" value="1.1: _set_tick_speed()" style="text;html=1;align=center;verticalAlign=middle;resizable=0;points=[];autosize=1;strokeColor=none;fillColor=none;" parent="1" vertex="1">
                    <mxGeometry x="305" y="535" width="140" height="30" as="geometry"/>
                </mxCell>
                <mxCell id="12" value=":Level" style="rounded=0;whiteSpace=wrap;html=1;" parent="1" vertex="1">
                    <mxGeometry x="600" y="420" width="120" height="60" as="geometry"/>
                </mxCell>
                <mxCell id="13" value="" style="endArrow=none;html=1;exitX=1;exitY=0.5;exitDx=0;exitDy=0;entryX=0;entryY=0.5;entryDx=0;entryDy=0;" parent="1" source="7" target="12" edge="1">
                    <mxGeometry width="50" height="50" relative="1" as="geometry">
                        <mxPoint x="420" y="450" as="sourcePoint"/>
                        <mxPoint x="470" y="400" as="targetPoint"/>
                    </mxGeometry>
                </mxCell>
                <mxCell id="14" value="1.2:control_moving_instances()" style="text;html=1;align=center;verticalAlign=middle;resizable=0;points=[];autosize=1;strokeColor=none;fillColor=none;" parent="1" vertex="1">
                    <mxGeometry x="405" y="420" width="190" height="30" as="geometry"/>
                </mxCell>
                <mxCell id="15" value=":Rock" style="rounded=0;whiteSpace=wrap;html=1;" parent="1" vertex="1">
                    <mxGeometry x="860" y="490" width="120" height="60" as="geometry"/>
                </mxCell>
                <mxCell id="16" value="" style="endArrow=none;html=1;entryX=0;entryY=0.5;entryDx=0;entryDy=0;exitX=1;exitY=1;exitDx=0;exitDy=0;" parent="1" source="12" target="15" edge="1">
                    <mxGeometry width="50" height="50" relative="1" as="geometry">
                        <mxPoint x="680" y="510" as="sourcePoint"/>
                        <mxPoint x="730" y="460" as="targetPoint"/>
                        <Array as="points">
                            <mxPoint x="720" y="520"/>
                        </Array>
                    </mxGeometry>
                </mxCell>
                <mxCell id="17" value="1.2.1: move()" style="text;html=1;align=center;verticalAlign=middle;resizable=0;points=[];autosize=1;strokeColor=none;fillColor=none;" parent="1" vertex="1">
                    <mxGeometry x="750" y="490" width="90" height="30" as="geometry"/>
                </mxCell>
                <mxCell id="18" value=":Enemy" style="rounded=0;whiteSpace=wrap;html=1;" parent="1" vertex="1">
                    <mxGeometry x="860" y="590" width="120" height="60" as="geometry"/>
                </mxCell>
                <mxCell id="19" value="" style="endArrow=none;html=1;exitX=0.75;exitY=1;exitDx=0;exitDy=0;entryX=0;entryY=0.5;entryDx=0;entryDy=0;" parent="1" source="12" target="18" edge="1">
                    <mxGeometry width="50" height="50" relative="1" as="geometry">
                        <mxPoint x="820" y="510" as="sourcePoint"/>
                        <mxPoint x="870" y="460" as="targetPoint"/>
                        <Array as="points">
                            <mxPoint x="690" y="620"/>
                        </Array>
                    </mxGeometry>
                </mxCell>
                <mxCell id="20" value="1.2.3: throw_rock()" style="text;html=1;align=center;verticalAlign=middle;resizable=0;points=[];autosize=1;strokeColor=none;fillColor=none;" parent="1" vertex="1">
                    <mxGeometry x="720" y="590" width="120" height="30" as="geometry"/>
                </mxCell>
                <mxCell id="21" value=":Alien" style="rounded=0;whiteSpace=wrap;html=1;" parent="1" vertex="1">
                    <mxGeometry x="860" y="350" width="120" height="60" as="geometry"/>
                </mxCell>
                <mxCell id="22" value="" style="endArrow=none;html=1;entryX=0;entryY=0.5;entryDx=0;entryDy=0;exitX=1;exitY=0;exitDx=0;exitDy=0;" parent="1" source="12" target="21" edge="1">
                    <mxGeometry width="50" height="50" relative="1" as="geometry">
                        <mxPoint x="820" y="510" as="sourcePoint"/>
                        <mxPoint x="870" y="460" as="targetPoint"/>
                        <Array as="points">
                            <mxPoint x="720" y="380"/>
                        </Array>
                    </mxGeometry>
                </mxCell>
                <mxCell id="23" value="1.2.2: move()" style="text;html=1;align=center;verticalAlign=middle;resizable=0;points=[];autosize=1;strokeColor=none;fillColor=none;" parent="1" vertex="1">
                    <mxGeometry x="750" y="350" width="90" height="30" as="geometry"/>
                </mxCell>
                <mxCell id="24" value=":AlienSpaceship" style="rounded=0;whiteSpace=wrap;html=1;" parent="1" vertex="1">
                    <mxGeometry x="860" y="250" width="120" height="60" as="geometry"/>
                </mxCell>
                <mxCell id="26" value="" style="endArrow=none;html=1;exitX=0.75;exitY=0;exitDx=0;exitDy=0;entryX=0;entryY=0.5;entryDx=0;entryDy=0;" parent="1" source="12" edge="1">
                    <mxGeometry width="50" height="50" relative="1" as="geometry">
                        <mxPoint x="690" y="140" as="sourcePoint"/>
                        <mxPoint x="860" y="280" as="targetPoint"/>
                        <Array as="points">
                            <mxPoint x="690" y="280"/>
                        </Array>
                    </mxGeometry>
                </mxCell>
                <mxCell id="27" value="1.2.4:deploy_alien()" style="text;html=1;align=center;verticalAlign=middle;resizable=0;points=[];autosize=1;strokeColor=none;fillColor=none;" parent="1" vertex="1">
                    <mxGeometry x="730" y="250" width="130" height="30" as="geometry"/>
                </mxCell>
                <mxCell id="28" value="" style="endArrow=none;html=1;entryX=1;entryY=0.5;entryDx=0;entryDy=0;" parent="1" target="21" edge="1">
                    <mxGeometry width="50" height="50" relative="1" as="geometry">
                        <mxPoint x="980" y="280" as="sourcePoint"/>
                        <mxPoint x="1030" y="230" as="targetPoint"/>
                        <Array as="points">
                            <mxPoint x="1040" y="280"/>
                            <mxPoint x="1040" y="380"/>
                        </Array>
                    </mxGeometry>
                </mxCell>
                <mxCell id="29" value="1.2.4.1: create(constructor parameters)" style="text;html=1;align=center;verticalAlign=middle;resizable=0;points=[];autosize=1;strokeColor=none;fillColor=none;" parent="1" vertex="1">
                    <mxGeometry x="1030" y="320" width="230" height="30" as="geometry"/>
                </mxCell>
                <mxCell id="30" value="" style="endArrow=none;html=1;entryX=1;entryY=0.5;entryDx=0;entryDy=0;" parent="1" edge="1">
                    <mxGeometry width="50" height="50" relative="1" as="geometry">
                        <mxPoint x="980" y="520" as="sourcePoint"/>
                        <mxPoint x="980" y="620" as="targetPoint"/>
                        <Array as="points">
                            <mxPoint x="1040" y="520"/>
                            <mxPoint x="1040" y="620"/>
                        </Array>
                    </mxGeometry>
                </mxCell>
                <mxCell id="31" value="1.2.3.1: create(constructor parameters)" style="text;html=1;align=center;verticalAlign=middle;resizable=0;points=[];autosize=1;strokeColor=none;fillColor=none;" parent="1" vertex="1">
                    <mxGeometry x="1030" y="560" width="230" height="30" as="geometry"/>
                </mxCell>
                <mxCell id="37" value="" style="endArrow=classic;html=1;fontSize=12;" edge="1" parent="1">
                    <mxGeometry width="50" height="50" relative="1" as="geometry">
                        <mxPoint x="160" y="460" as="sourcePoint"/>
                        <mxPoint x="220" y="460" as="targetPoint"/>
                    </mxGeometry>
                </mxCell>
                <mxCell id="38" value="" style="endArrow=classic;html=1;fontSize=12;" edge="1" parent="1">
                    <mxGeometry width="50" height="50" relative="1" as="geometry">
                        <mxPoint x="405" y="530" as="sourcePoint"/>
                        <mxPoint x="345" y="530" as="targetPoint"/>
                    </mxGeometry>
                </mxCell>
                <mxCell id="39" value="" style="endArrow=classic;html=1;fontSize=12;" edge="1" parent="1">
                    <mxGeometry width="50" height="50" relative="1" as="geometry">
                        <mxPoint x="450" y="460" as="sourcePoint"/>
                        <mxPoint x="510" y="460" as="targetPoint"/>
                    </mxGeometry>
                </mxCell>
                <mxCell id="40" value="" style="endArrow=classic;html=1;fontSize=12;" edge="1" parent="1">
                    <mxGeometry width="50" height="50" relative="1" as="geometry">
                        <mxPoint x="765" y="290" as="sourcePoint"/>
                        <mxPoint x="825" y="290" as="targetPoint"/>
                    </mxGeometry>
                </mxCell>
                <mxCell id="41" value="" style="endArrow=classic;html=1;fontSize=12;" edge="1" parent="1">
                    <mxGeometry width="50" height="50" relative="1" as="geometry">
                        <mxPoint x="770" y="390" as="sourcePoint"/>
                        <mxPoint x="830" y="390" as="targetPoint"/>
                    </mxGeometry>
                </mxCell>
                <mxCell id="42" value="" style="endArrow=classic;html=1;fontSize=12;" edge="1" parent="1">
                    <mxGeometry width="50" height="50" relative="1" as="geometry">
                        <mxPoint x="770" y="530" as="sourcePoint"/>
                        <mxPoint x="830" y="530" as="targetPoint"/>
                    </mxGeometry>
                </mxCell>
                <mxCell id="43" value="" style="endArrow=classic;html=1;fontSize=12;" edge="1" parent="1">
                    <mxGeometry width="50" height="50" relative="1" as="geometry">
                        <mxPoint x="765" y="630" as="sourcePoint"/>
                        <mxPoint x="825" y="630" as="targetPoint"/>
                    </mxGeometry>
                </mxCell>
                <mxCell id="44" value="" style="endArrow=classic;html=1;fontSize=12;" edge="1" parent="1">
                    <mxGeometry width="50" height="50" relative="1" as="geometry">
                        <mxPoint x="1028.75" y="300" as="sourcePoint"/>
                        <mxPoint x="1028.75" y="370" as="targetPoint"/>
                    </mxGeometry>
                </mxCell>
                <mxCell id="45" value="" style="endArrow=classic;html=1;fontSize=12;" edge="1" parent="1">
                    <mxGeometry width="50" height="50" relative="1" as="geometry">
                        <mxPoint x="1028.7500000000002" y="535" as="sourcePoint"/>
                        <mxPoint x="1028.7500000000002" y="605" as="targetPoint"/>
                    </mxGeometry>
                </mxCell>
                <mxCell id="46" value="" style="endArrow=none;html=1;startSize=6;exitX=1;exitY=0;exitDx=0;exitDy=0;entryX=0.5;entryY=0;entryDx=0;entryDy=0;" edge="1" parent="1" source="7" target="12">
                    <mxGeometry width="50" height="50" relative="1" as="geometry">
                        <mxPoint x="610" y="500" as="sourcePoint"/>
                        <mxPoint x="660" y="450" as="targetPoint"/>
                        <Array as="points">
                            <mxPoint x="390" y="360"/>
                            <mxPoint x="550" y="360"/>
                            <mxPoint x="660" y="360"/>
                        </Array>
                    </mxGeometry>
                </mxCell>
                <mxCell id="48" value="1.3: score_calculation()" style="text;html=1;align=center;verticalAlign=middle;resizable=0;points=[];autosize=1;strokeColor=none;fillColor=none;" vertex="1" parent="1">
                    <mxGeometry x="440" y="330" width="150" height="30" as="geometry"/>
                </mxCell>
                <mxCell id="49" value="" style="endArrow=classic;html=1;fontSize=12;" edge="1" parent="1">
                    <mxGeometry width="50" height="50" relative="1" as="geometry">
                        <mxPoint x="490" y="370" as="sourcePoint"/>
                        <mxPoint x="540" y="370" as="targetPoint"/>
                    </mxGeometry>
                </mxCell>
            </root>
        </mxGraphModel>
    </diagram>
</mxfile>